<svg width="19" height="18" viewBox="0 0 19 18" fill="none" xmlns="http://www.w3.org/2000/svg">
<path d="M17.8307 8.14248L1.72655 0.56406C1.56441 0.487343 1.3838 0.458291 1.20577 0.480287C1.02775 0.502284 0.859638 0.574424 0.721041 0.6883C0.582444 0.802176 0.479066 0.953097 0.422956 1.12347C0.366845 1.29385 0.360312 1.47667 0.404119 1.65062L2.24094 8.99978L0.404119 16.349C0.359902 16.523 0.366149 16.706 0.422129 16.8766C0.47811 17.0472 0.581509 17.1983 0.720231 17.3123C0.858953 17.4262 1.02726 17.4984 1.20547 17.5202C1.38368 17.542 1.56442 17.5126 1.72655 17.4355L17.8307 9.85709C17.9934 9.78059 18.131 9.65935 18.2274 9.50754C18.3238 9.35572 18.375 9.17961 18.375 8.99978C18.375 8.81996 18.3238 8.64385 18.2274 8.49203C18.131 8.34022 17.9934 8.21898 17.8307 8.14248ZM2.72596 14.8702L3.52074 11.6901L8.90142 8.99978L3.52074 6.30945L2.72596 3.12935L15.2019 8.99978L2.72596 14.8702Z" fill="white"/>
</svg>
