<svg width="67" height="67" viewBox="0 0 67 67" fill="none" xmlns="http://www.w3.org/2000/svg">
<path d="M59.8577 3.80534C58.7727 2.99161 57.145 2.99161 56.06 4.34782L48.1931 14.1126C43.8528 11.1289 38.6987 9.50144 33.002 9.50144C18.0822 9.50144 5.875 21.7074 5.875 36.6257C5.875 51.5441 18.0822 63.75 33.002 63.75C47.9219 63.75 60.129 51.5441 60.129 36.6257C60.129 31.2009 58.5014 26.3185 55.7887 21.9786L53.8898 24.1485L51.9909 26.3185L36.2572 46.1192C35.7147 46.6617 34.9009 47.2042 34.0871 47.2042C33.2733 47.2042 32.7307 46.9329 32.1882 46.3905L20.5236 33.9133C19.7098 33.0996 19.7098 31.7433 19.981 30.9296C19.981 30.6584 20.2523 30.3871 20.5236 30.1159C21.6087 29.0309 23.2363 29.0309 24.3214 30.1159L33.8158 40.4231L48.7357 21.7074L50.3633 19.5374L51.9909 17.3675L59.8577 7.60274C61.2141 6.51776 61.2141 4.89031 59.8577 3.80534Z" fill="#9CE96D"/>
</svg>
