<svg width="523" height="122" viewBox="0 0 523 122" fill="none" xmlns="http://www.w3.org/2000/svg">
<path d="M253.083 24.0056L244.373 0H258.026L262.457 12.4829L266.736 24.1085L256.911 35.5969L246.844 48.0112H233.07L253.083 24.0056Z" fill="#FA8316"/>
<path d="M50.6627 60.9877L28.6122 0H63.1758L74.3918 31.7136L85.2263 61.249L60.3528 90.436L34.8688 121.975H0L50.6627 60.9877Z" fill="#FA8316"/>
<path d="M167.847 24.0056L162.181 48.0112H150.125L161.427 0H173.483L182.917 24.0056L188.553 0H200.609L189.307 48.0112H177.251L167.847 24.0056Z" fill="white"/>
<path d="M241.233 0L238.008 13.7175H219.924L219.11 17.1469H234.18L230.955 30.8643H215.885L215.071 34.2937H233.155L229.93 48.0112H199.791L211.093 0H241.233Z" fill="white"/>
<path d="M305.029 48.0112H292.973L301.051 13.7175H290.502L293.727 0H326.88L323.656 13.7175H313.107L305.029 48.0112Z" fill="white"/>
<path d="M353.369 13.7175L351.741 20.5762H360.783C362.792 20.5762 364.068 19.4331 364.611 17.1469C365.153 14.8606 364.42 13.7175 362.41 13.7175H353.369ZM348.516 34.2937L345.291 48.0112H333.235L344.538 0H365.635C375.682 0 379.359 5.71562 376.667 17.1469C374.517 26.2918 370.016 31.7788 363.164 33.6078L372.417 48.0112H357.347L348.516 34.2937Z" fill="white"/>
<path d="M402.944 14.4034L395.77 27.435H403.938L402.944 14.4034ZM388.235 41.1524L384.468 48.0112H372.412L398.784 0H413.854L417.622 48.0112H405.566L405.023 41.1524H388.235Z" fill="white"/>
<path d="M450.982 0H464.545L461.32 13.7175H447.757C445.265 13.7175 442.894 14.7234 440.644 16.7353C438.413 18.7472 436.967 21.1706 436.304 24.0056C435.62 26.8405 435.922 29.264 437.208 31.2759C438.514 33.2878 440.413 34.2937 442.904 34.2937H456.467L453.242 48.0112H439.679C433.852 48.0112 429.432 45.6678 426.418 40.981C423.404 36.2942 422.68 30.6357 424.248 24.0056C425.795 17.3755 429.181 11.717 434.405 7.03021C439.629 2.3434 445.155 0 450.982 0Z" fill="white"/>
<path d="M503.541 0L500.316 13.7175H482.232L481.418 17.1469H496.488L493.263 30.8643H478.193L477.379 34.2937H495.463L492.238 48.0112H462.098L473.401 0H503.541Z" fill="white"/>
<path fill-rule="evenodd" clip-rule="evenodd" d="M65.3555 102.592L73.0732 121.975H107.148L89.8047 73.3745L75.2127 90.436L65.3555 102.592ZM95.6313 48.9062L135.862 0H101.099L84.9196 19.3664L89.302 31.7136L95.6313 48.9062Z" fill="white"/>
<path fill-rule="evenodd" clip-rule="evenodd" d="M258.809 40.3823L261.846 48.0112H275.258L268.432 28.8819L262.689 35.5969L258.809 40.3823ZM270.726 19.2495L286.561 0H272.877L266.51 7.62221L268.235 12.4829L270.726 19.2495Z" fill="white"/>
<path d="M151.254 88V66.9062H155.66C157.066 66.9062 158.223 67.0352 159.129 67.293C160.043 67.543 160.758 67.9609 161.273 68.5469C161.797 69.125 162.156 69.8203 162.352 70.6328C162.555 71.4453 162.656 72.4805 162.656 73.7383V80.6523C162.656 81.4023 162.633 82.0586 162.586 82.6211C162.539 83.1758 162.449 83.7227 162.316 84.2617C162.191 84.793 162.016 85.2461 161.789 85.6211C161.57 85.9883 161.285 86.332 160.934 86.6523C160.582 86.9727 160.156 87.2266 159.656 87.4141C159.164 87.6016 158.582 87.7461 157.91 87.8477C157.246 87.9492 156.48 88 155.613 88H151.254ZM155.684 85.0117C156.09 85.0117 156.41 85.0078 156.645 85C156.879 84.9844 157.113 84.9531 157.348 84.9062C157.582 84.8594 157.754 84.7969 157.863 84.7188C157.973 84.6328 158.074 84.5117 158.168 84.3555C158.262 84.1992 158.32 84.0156 158.344 83.8047C158.375 83.5859 158.391 83.3164 158.391 82.9961V71.6406C158.391 70.9453 158.184 70.4844 157.77 70.2578C157.355 70.0312 156.66 69.9141 155.684 69.9062V85.0117ZM164.895 88V66.9062H173.695V69.8359H169.16V75.5781H172.371V78.5781H169.16V85.0703H173.695V88H164.895ZM180.035 88V66.9062H185.145L187.395 80.9688L189.82 66.9062H194.754V88H191.613L191.52 73.1641C191.285 74.6875 190.875 77.1602 190.289 80.582C189.703 84.0039 189.293 86.4766 189.059 88H185.871L183.281 73.0703L183.188 88H180.035ZM197.262 88V66.9062H206.062V69.8359H201.527V75.5781H204.738V78.5781H201.527V85.0703H206.062V88H197.262ZM207.598 88V66.9062H216.398V69.8359H211.863V75.5781H215.074V78.5781H211.863V85.0703H216.398V88H207.598ZM217.207 81.9648L221.531 81.1328C221.531 81.5625 221.539 81.9414 221.555 82.2695C221.57 82.5977 221.609 82.957 221.672 83.3477C221.742 83.7305 221.832 84.0469 221.941 84.2969C222.059 84.5391 222.219 84.7461 222.422 84.918C222.633 85.082 222.879 85.1641 223.16 85.1641C224.004 85.1641 224.426 84.625 224.426 83.5469C224.426 82.0703 223.594 80.6016 221.93 79.1406L220.605 78.0156C220.184 77.6641 219.848 77.3711 219.598 77.1367C219.348 76.9023 219.051 76.5859 218.707 76.1875C218.371 75.7891 218.105 75.4062 217.91 75.0391C217.723 74.6641 217.559 74.2148 217.418 73.6914C217.285 73.168 217.219 72.6133 217.219 72.0273C217.219 70.3164 217.762 68.9648 218.848 67.9727C219.934 66.9727 221.375 66.4727 223.172 66.4727C224.664 66.4727 225.934 67.0039 226.98 68.0664C228.027 69.1289 228.551 70.4102 228.551 71.9102L228.539 72.0625C228.539 72.1641 228.539 72.2812 228.539 72.4141L224.133 73.0234C224.133 72.9375 224.137 72.8047 224.145 72.625C224.16 72.4375 224.168 72.2852 224.168 72.168C224.168 71.8867 224.148 71.6172 224.109 71.3594C224.07 71.1016 224.004 70.8438 223.91 70.5859C223.824 70.3281 223.688 70.125 223.5 69.9766C223.312 69.8203 223.086 69.7422 222.82 69.7422C222.352 69.7422 222 69.9258 221.766 70.293C221.531 70.6602 221.414 71.0938 221.414 71.5938C221.414 72.0312 221.48 72.4414 221.613 72.8242C221.754 73.207 221.961 73.5664 222.234 73.9023C222.516 74.2305 222.773 74.5039 223.008 74.7227C223.242 74.9414 223.555 75.2109 223.945 75.5312C224.336 75.8438 224.613 76.0742 224.777 76.2227C225.379 76.7539 225.887 77.2539 226.301 77.7227C226.715 78.1836 227.105 78.707 227.473 79.293C227.84 79.8789 228.113 80.5117 228.293 81.1914C228.48 81.8711 228.574 82.6055 228.574 83.3945C228.574 84.8711 228.047 86.082 226.992 87.0273C225.938 87.9648 224.656 88.4336 223.148 88.4336C222.172 88.4336 221.305 88.2539 220.547 87.8945C219.789 87.5352 219.176 87.0469 218.707 86.4297C218.246 85.8125 217.891 85.1289 217.641 84.3789C217.391 83.6289 217.246 82.8242 217.207 81.9648ZM232.289 88V70.0938H229.195V66.9062H239.59V70.0938H236.555V88H232.289ZM245.555 80.957V73.9727C245.555 68.9883 247.594 66.4961 251.672 66.4961C252.531 66.4961 253.293 66.6133 253.957 66.8477C254.629 67.0742 255.191 67.3906 255.645 67.7969C256.098 68.2031 256.469 68.7031 256.758 69.2969C257.055 69.8906 257.266 70.5352 257.391 71.2305C257.523 71.9258 257.59 72.6914 257.59 73.5273V75.3438H253.395V73.3984C253.395 73.0156 253.387 72.6875 253.371 72.4141C253.355 72.1328 253.312 71.8164 253.242 71.4648C253.18 71.1055 253.09 70.8164 252.973 70.5977C252.863 70.3711 252.695 70.1797 252.469 70.0234C252.25 69.8672 251.984 69.7891 251.672 69.7891C250.438 69.7891 249.82 70.8281 249.82 72.9062V82.0117C249.82 84.082 250.438 85.1172 251.672 85.1172C252.039 85.1172 252.348 85.0117 252.598 84.8008C252.848 84.5898 253.027 84.293 253.137 83.9102C253.246 83.5195 253.32 83.1406 253.359 82.7734C253.398 82.3984 253.418 81.9727 253.418 81.4961V79.3281H257.59V81.1094C257.574 81.9141 257.508 82.6562 257.391 83.3359C257.273 84.0156 257.074 84.6758 256.793 85.3164C256.512 85.957 256.152 86.5 255.715 86.9453C255.285 87.3828 254.727 87.7344 254.039 88C253.352 88.2734 252.562 88.4102 251.672 88.4102C250.758 88.4102 249.945 88.2773 249.234 88.0117C248.531 87.7539 247.949 87.4062 247.488 86.9688C247.035 86.5234 246.66 85.9805 246.363 85.3398C246.066 84.6914 245.855 84.0117 245.73 83.3008C245.613 82.5898 245.555 81.8086 245.555 80.957ZM259.312 81.0625V73.9727C259.312 68.9883 261.367 66.4961 265.477 66.4961C269.594 66.4961 271.652 68.9883 271.652 73.9727V80.957C271.652 81.8008 271.59 82.582 271.465 83.3008C271.34 84.0117 271.125 84.6875 270.82 85.3281C270.523 85.9688 270.141 86.5156 269.672 86.9688C269.211 87.4141 268.625 87.7656 267.914 88.0234C267.203 88.2812 266.391 88.4102 265.477 88.4102C264.57 88.4102 263.762 88.2812 263.051 88.0234C262.34 87.7734 261.754 87.4336 261.293 87.0039C260.832 86.5664 260.449 86.0352 260.145 85.4102C259.848 84.7773 259.633 84.1055 259.5 83.3945C259.375 82.6836 259.312 81.9062 259.312 81.0625ZM267.387 82.0234V72.9062C267.387 70.8281 266.75 69.7891 265.477 69.7891C265.094 69.7891 264.77 69.8867 264.504 70.082C264.238 70.2695 264.043 70.5312 263.918 70.8672C263.793 71.1953 263.703 71.5234 263.648 71.8516C263.602 72.1719 263.578 72.5234 263.578 72.9062V82.0234C263.578 84.0938 264.211 85.1289 265.477 85.1289C266.75 85.1289 267.387 84.0938 267.387 82.0234ZM273.902 88V66.9062H279.012L281.262 80.9688L283.688 66.9062H288.621V88H285.48L285.387 73.1641C285.152 74.6875 284.742 77.1602 284.156 80.582C283.57 84.0039 283.16 86.4766 282.926 88H279.738L277.148 73.0703L277.055 88H273.902ZM295.43 75.9648C295.656 75.9648 295.855 75.9531 296.027 75.9297C296.207 75.8984 296.363 75.8672 296.496 75.8359C296.629 75.7969 296.746 75.7305 296.848 75.6367C296.949 75.543 297.031 75.4609 297.094 75.3906C297.164 75.3203 297.223 75.207 297.27 75.0508C297.316 74.8867 297.352 74.7539 297.375 74.6523C297.398 74.5508 297.414 74.3867 297.422 74.1602C297.438 73.9336 297.445 73.7539 297.445 73.6211C297.445 73.4805 297.445 73.2656 297.445 72.9766C297.445 72.8984 297.445 72.8398 297.445 72.8008C297.445 72.4961 297.441 72.2656 297.434 72.1094C297.434 71.9531 297.422 71.7539 297.398 71.5117C297.375 71.2695 297.336 71.0898 297.281 70.9727C297.234 70.8477 297.16 70.707 297.059 70.5508C296.965 70.3945 296.848 70.2812 296.707 70.2109C296.566 70.1406 296.387 70.0781 296.168 70.0234C295.957 69.9688 295.711 69.9414 295.43 69.9414V75.9648ZM291.129 88V66.9062H296.227C298.062 66.9062 299.398 67.418 300.234 68.4414C301.07 69.4648 301.488 70.9453 301.488 72.8828C301.488 73.8359 301.395 74.6641 301.207 75.3672C301.027 76.0703 300.773 76.6523 300.445 77.1133C300.117 77.5664 299.695 77.9336 299.18 78.2148C298.664 78.4883 298.105 78.6836 297.504 78.8008C296.902 78.9102 296.207 78.9688 295.418 78.9766V88H291.129ZM303.105 88V66.9062H307.371V85.0703H311.566V88H303.105ZM312.926 88V66.9062H321.727V69.8359H317.191V75.5781H320.402V78.5781H317.191V85.0703H321.727V88H312.926ZM325.266 88V70.0938H322.172V66.9062H332.566V70.0938H329.531V88H325.266ZM333.996 88V66.9062H342.797V69.8359H338.262V75.5781H341.473V78.5781H338.262V85.0703H342.797V88H333.996ZM151.254 119V97.9062H155.52V106.555H158.578V97.9062H162.867V119H158.578V109.59H155.52V119H151.254ZM169.582 111.863H171.762L170.695 104.035L169.582 111.863ZM164.238 119L168.797 97.9062H172.57L177.117 119H172.91L172.043 114.488H169.289L168.469 119H164.238ZM182.754 106.684H183.973C184.301 106.684 184.582 106.574 184.816 106.355C185.051 106.137 185.219 105.859 185.32 105.523C185.43 105.188 185.504 104.879 185.543 104.598C185.59 104.316 185.613 104.051 185.613 103.801C185.613 103.551 185.594 103.293 185.555 103.027C185.523 102.762 185.461 102.469 185.367 102.148C185.281 101.82 185.133 101.555 184.922 101.352C184.719 101.141 184.469 101.035 184.172 101.035H182.754V106.684ZM178.488 119V97.9062H183.129C184.184 97.9062 185.109 98.0078 185.906 98.2109C186.711 98.4062 187.414 98.7188 188.016 99.1484C188.617 99.5703 189.074 100.145 189.387 100.871C189.699 101.59 189.855 102.453 189.855 103.461C189.855 103.898 189.84 104.289 189.809 104.633C189.777 104.977 189.703 105.371 189.586 105.816C189.477 106.254 189.324 106.645 189.129 106.988C188.934 107.324 188.652 107.656 188.285 107.984C187.918 108.312 187.484 108.586 186.984 108.805C188.25 112.82 189.352 116.219 190.289 119H185.871L183.457 109.285H182.754V119H178.488ZM191.637 119V97.9062H196.043C197.449 97.9062 198.605 98.0352 199.512 98.293C200.426 98.543 201.141 98.9609 201.656 99.5469C202.18 100.125 202.539 100.82 202.734 101.633C202.938 102.445 203.039 103.48 203.039 104.738V111.652C203.039 112.402 203.016 113.059 202.969 113.621C202.922 114.176 202.832 114.723 202.699 115.262C202.574 115.793 202.398 116.246 202.172 116.621C201.953 116.988 201.668 117.332 201.316 117.652C200.965 117.973 200.539 118.227 200.039 118.414C199.547 118.602 198.965 118.746 198.293 118.848C197.629 118.949 196.863 119 195.996 119H191.637ZM196.066 116.012C196.473 116.012 196.793 116.008 197.027 116C197.262 115.984 197.496 115.953 197.73 115.906C197.965 115.859 198.137 115.797 198.246 115.719C198.355 115.633 198.457 115.512 198.551 115.355C198.645 115.199 198.703 115.016 198.727 114.805C198.758 114.586 198.773 114.316 198.773 113.996V102.641C198.773 101.945 198.566 101.484 198.152 101.258C197.738 101.031 197.043 100.914 196.066 100.906V116.012ZM205.277 119V97.9062H209.543V116.07H213.738V119H205.277ZM214.828 112.062V104.973C214.828 99.9883 216.883 97.4961 220.992 97.4961C225.109 97.4961 227.168 99.9883 227.168 104.973V111.957C227.168 112.801 227.105 113.582 226.98 114.301C226.855 115.012 226.641 115.688 226.336 116.328C226.039 116.969 225.656 117.516 225.188 117.969C224.727 118.414 224.141 118.766 223.43 119.023C222.719 119.281 221.906 119.41 220.992 119.41C220.086 119.41 219.277 119.281 218.566 119.023C217.855 118.773 217.27 118.434 216.809 118.004C216.348 117.566 215.965 117.035 215.66 116.41C215.363 115.777 215.148 115.105 215.016 114.395C214.891 113.684 214.828 112.906 214.828 112.062ZM222.902 113.023V103.906C222.902 101.828 222.266 100.789 220.992 100.789C220.609 100.789 220.285 100.887 220.02 101.082C219.754 101.27 219.559 101.531 219.434 101.867C219.309 102.195 219.219 102.523 219.164 102.852C219.117 103.172 219.094 103.523 219.094 103.906V113.023C219.094 115.094 219.727 116.129 220.992 116.129C222.266 116.129 222.902 115.094 222.902 113.023ZM229.148 112.062V104.973C229.148 99.9883 231.203 97.4961 235.312 97.4961C239.43 97.4961 241.488 99.9883 241.488 104.973V111.957C241.488 112.801 241.426 113.582 241.301 114.301C241.176 115.012 240.961 115.688 240.656 116.328C240.359 116.969 239.977 117.516 239.508 117.969C239.047 118.414 238.461 118.766 237.75 119.023C237.039 119.281 236.227 119.41 235.312 119.41C234.406 119.41 233.598 119.281 232.887 119.023C232.176 118.773 231.59 118.434 231.129 118.004C230.668 117.566 230.285 117.035 229.98 116.41C229.684 115.777 229.469 115.105 229.336 114.395C229.211 113.684 229.148 112.906 229.148 112.062ZM237.223 113.023V103.906C237.223 101.828 236.586 100.789 235.312 100.789C234.93 100.789 234.605 100.887 234.34 101.082C234.074 101.27 233.879 101.531 233.754 101.867C233.629 102.195 233.539 102.523 233.484 102.852C233.438 103.172 233.414 103.523 233.414 103.906V113.023C233.414 115.094 234.047 116.129 235.312 116.129C236.586 116.129 237.223 115.094 237.223 113.023ZM248.039 106.965C248.266 106.965 248.465 106.953 248.637 106.93C248.816 106.898 248.973 106.867 249.105 106.836C249.238 106.797 249.355 106.73 249.457 106.637C249.559 106.543 249.641 106.461 249.703 106.391C249.773 106.32 249.832 106.207 249.879 106.051C249.926 105.887 249.961 105.754 249.984 105.652C250.008 105.551 250.023 105.387 250.031 105.16C250.047 104.934 250.055 104.754 250.055 104.621C250.055 104.48 250.055 104.266 250.055 103.977C250.055 103.898 250.055 103.84 250.055 103.801C250.055 103.496 250.051 103.266 250.043 103.109C250.043 102.953 250.031 102.754 250.008 102.512C249.984 102.27 249.945 102.09 249.891 101.973C249.844 101.848 249.77 101.707 249.668 101.551C249.574 101.395 249.457 101.281 249.316 101.211C249.176 101.141 248.996 101.078 248.777 101.023C248.566 100.969 248.32 100.941 248.039 100.941V106.965ZM243.738 119V97.9062H248.836C250.672 97.9062 252.008 98.418 252.844 99.4414C253.68 100.465 254.098 101.945 254.098 103.883C254.098 104.836 254.004 105.664 253.816 106.367C253.637 107.07 253.383 107.652 253.055 108.113C252.727 108.566 252.305 108.934 251.789 109.215C251.273 109.488 250.715 109.684 250.113 109.801C249.512 109.91 248.816 109.969 248.027 109.977V119H243.738ZM255.715 119V97.9062H259.98V105.91L263.285 97.9062H268.055L263.754 106.543L268.371 119H263.941L260.754 109.355L259.98 111.348V119H255.715ZM273.387 111.863H275.566L274.5 104.035L273.387 111.863ZM268.043 119L272.602 97.9062H276.375L280.922 119H276.715L275.848 114.488H273.094L272.273 119H268.043ZM282.293 119V97.9062H286.559V116.07H290.754V119H282.293ZM292.113 119V97.9062H300.914V100.836H296.379V106.578H299.59V109.578H296.379V116.07H300.914V119H292.113ZM302.449 119V97.8945H305.52L310.148 108.934V97.8945H313.688V119H310.734L306.117 107.293V119H302.449ZM316.207 119V97.9062H320.613C322.02 97.9062 323.176 98.0352 324.082 98.293C324.996 98.543 325.711 98.9609 326.227 99.5469C326.75 100.125 327.109 100.82 327.305 101.633C327.508 102.445 327.609 103.48 327.609 104.738V111.652C327.609 112.402 327.586 113.059 327.539 113.621C327.492 114.176 327.402 114.723 327.27 115.262C327.145 115.793 326.969 116.246 326.742 116.621C326.523 116.988 326.238 117.332 325.887 117.652C325.535 117.973 325.109 118.227 324.609 118.414C324.117 118.602 323.535 118.746 322.863 118.848C322.199 118.949 321.434 119 320.566 119H316.207ZM320.637 116.012C321.043 116.012 321.363 116.008 321.598 116C321.832 115.984 322.066 115.953 322.301 115.906C322.535 115.859 322.707 115.797 322.816 115.719C322.926 115.633 323.027 115.512 323.121 115.355C323.215 115.199 323.273 115.016 323.297 114.805C323.328 114.586 323.344 114.316 323.344 113.996V102.641C323.344 101.945 323.137 101.484 322.723 101.258C322.309 101.031 321.613 100.914 320.637 100.906V116.012ZM329.848 119V97.9062H338.648V100.836H334.113V106.578H337.324V109.578H334.113V116.07H338.648V119H329.848ZM344.449 106.684H345.668C345.996 106.684 346.277 106.574 346.512 106.355C346.746 106.137 346.914 105.859 347.016 105.523C347.125 105.188 347.199 104.879 347.238 104.598C347.285 104.316 347.309 104.051 347.309 103.801C347.309 103.551 347.289 103.293 347.25 103.027C347.219 102.762 347.156 102.469 347.062 102.148C346.977 101.82 346.828 101.555 346.617 101.352C346.414 101.141 346.164 101.035 345.867 101.035H344.449V106.684ZM340.184 119V97.9062H344.824C345.879 97.9062 346.805 98.0078 347.602 98.2109C348.406 98.4062 349.109 98.7188 349.711 99.1484C350.312 99.5703 350.77 100.145 351.082 100.871C351.395 101.59 351.551 102.453 351.551 103.461C351.551 103.898 351.535 104.289 351.504 104.633C351.473 104.977 351.398 105.371 351.281 105.816C351.172 106.254 351.02 106.645 350.824 106.988C350.629 107.324 350.348 107.656 349.98 107.984C349.613 108.312 349.18 108.586 348.68 108.805C349.945 112.82 351.047 116.219 351.984 119H347.566L345.152 109.285H344.449V119H340.184ZM360.902 119L357.023 97.9062H361.066L362.93 110.691L364.992 97.9062H368.977L364.805 119H360.902ZM373.535 111.863H375.715L374.648 104.035L373.535 111.863ZM368.191 119L372.75 97.9062H376.523L381.07 119H376.863L375.996 114.488H373.242L372.422 119H368.191ZM382.441 119V97.8945H385.512L390.141 108.934V97.8945H393.68V119H390.727L386.109 107.293V119H382.441ZM401.004 119V97.8945H404.074L408.703 108.934V97.8945H412.242V119H409.289L404.672 107.293V119H401.004ZM414.762 119V97.9062H423.562V100.836H419.027V106.578H422.238V109.578H419.027V116.07H423.562V119H414.762ZM425.098 119V97.9062H429.504C430.91 97.9062 432.066 98.0352 432.973 98.293C433.887 98.543 434.602 98.9609 435.117 99.5469C435.641 100.125 436 100.82 436.195 101.633C436.398 102.445 436.5 103.48 436.5 104.738V111.652C436.5 112.402 436.477 113.059 436.43 113.621C436.383 114.176 436.293 114.723 436.16 115.262C436.035 115.793 435.859 116.246 435.633 116.621C435.414 116.988 435.129 117.332 434.777 117.652C434.426 117.973 434 118.227 433.5 118.414C433.008 118.602 432.426 118.746 431.754 118.848C431.09 118.949 430.324 119 429.457 119H425.098ZM429.527 116.012C429.934 116.012 430.254 116.008 430.488 116C430.723 115.984 430.957 115.953 431.191 115.906C431.426 115.859 431.598 115.797 431.707 115.719C431.816 115.633 431.918 115.512 432.012 115.355C432.105 115.199 432.164 115.016 432.188 114.805C432.219 114.586 432.234 114.316 432.234 113.996V102.641C432.234 101.945 432.027 101.484 431.613 101.258C431.199 101.031 430.504 100.914 429.527 100.906V116.012ZM438.738 119V97.9062H447.539V100.836H443.004V106.578H446.215V109.578H443.004V116.07H447.539V119H438.738ZM453.34 106.684H454.559C454.887 106.684 455.168 106.574 455.402 106.355C455.637 106.137 455.805 105.859 455.906 105.523C456.016 105.188 456.09 104.879 456.129 104.598C456.176 104.316 456.199 104.051 456.199 103.801C456.199 103.551 456.18 103.293 456.141 103.027C456.109 102.762 456.047 102.469 455.953 102.148C455.867 101.82 455.719 101.555 455.508 101.352C455.305 101.141 455.055 101.035 454.758 101.035H453.34V106.684ZM449.074 119V97.9062H453.715C454.77 97.9062 455.695 98.0078 456.492 98.2109C457.297 98.4062 458 98.7188 458.602 99.1484C459.203 99.5703 459.66 100.145 459.973 100.871C460.285 101.59 460.441 102.453 460.441 103.461C460.441 103.898 460.426 104.289 460.395 104.633C460.363 104.977 460.289 105.371 460.172 105.816C460.062 106.254 459.91 106.645 459.715 106.988C459.52 107.324 459.238 107.656 458.871 107.984C458.504 108.312 458.07 108.586 457.57 108.805C458.836 112.82 459.938 116.219 460.875 119H456.457L454.043 109.285H453.34V119H449.074ZM462.223 119V97.9062H466.488V116.07H470.684V119H462.223ZM476.238 111.863H478.418L477.352 104.035L476.238 111.863ZM470.895 119L475.453 97.9062H479.227L483.773 119H479.566L478.699 114.488H475.945L475.125 119H470.895ZM485.145 119V97.8945H488.215L492.844 108.934V97.8945H496.383V119H493.43L488.812 107.293V119H485.145ZM498.902 119V97.9062H503.309C504.715 97.9062 505.871 98.0352 506.777 98.293C507.691 98.543 508.406 98.9609 508.922 99.5469C509.445 100.125 509.805 100.82 510 101.633C510.203 102.445 510.305 103.48 510.305 104.738V111.652C510.305 112.402 510.281 113.059 510.234 113.621C510.188 114.176 510.098 114.723 509.965 115.262C509.84 115.793 509.664 116.246 509.438 116.621C509.219 116.988 508.934 117.332 508.582 117.652C508.23 117.973 507.805 118.227 507.305 118.414C506.812 118.602 506.23 118.746 505.559 118.848C504.895 118.949 504.129 119 503.262 119H498.902ZM503.332 116.012C503.738 116.012 504.059 116.008 504.293 116C504.527 115.984 504.762 115.953 504.996 115.906C505.23 115.859 505.402 115.797 505.512 115.719C505.621 115.633 505.723 115.512 505.816 115.355C505.91 115.199 505.969 115.016 505.992 114.805C506.023 114.586 506.039 114.316 506.039 113.996V102.641C506.039 101.945 505.832 101.484 505.418 101.258C505.004 101.031 504.309 100.914 503.332 100.906V116.012Z" fill="white"/>
</svg>
