<svg width="237" height="33" viewBox="0 0 237 33" fill="none" xmlns="http://www.w3.org/2000/svg">
<path d="M69.0417 16.0981L63.2005 0H72.3564L75.3275 8.37102L78.1976 16.1671L71.6086 23.8712L64.8578 32.1962H55.6211L69.0417 16.0981Z" fill="#FA8316"/>
<path fill-rule="evenodd" clip-rule="evenodd" d="M72.8867 27.0787L74.9243 32.1962H83.9185L79.3403 19.3666L75.4877 23.8712L72.8867 27.0787ZM80.8777 12.9103L91.4979 0H82.3218L78.0503 5.11306L79.2066 8.37102L80.8777 12.9103Z" fill="white"/>
<path d="M11.8845 16.0981L8.08468 32.1962H0L7.57939 0H15.6641L21.9903 16.0981L25.7699 0H33.8546L26.2752 32.1962H18.1905L11.8845 16.0981Z" fill="white"/>
<path d="M61.0967 0L58.9341 9.19892H46.8071L46.2614 11.4987H56.3672L54.2045 20.6976H44.0987L43.553 22.9973H55.68L53.5174 32.1962H33.3057L40.885 0H61.0967Z" fill="white"/>
<path d="M103.878 32.1962H95.7938L101.211 9.19892H94.1364L96.2991 0H118.532L116.369 9.19892H109.295L103.878 32.1962Z" fill="white"/>
<path d="M136.295 9.19892L135.203 13.7984H141.267C142.614 13.7984 143.47 13.0318 143.834 11.4987C144.198 9.9655 143.706 9.19892 142.358 9.19892H136.295ZM133.041 22.9973L130.878 32.1962H122.793L130.373 0H144.521C151.258 0 153.724 3.83288 151.918 11.4987C150.477 17.6313 147.458 21.3108 142.864 22.5374L149.069 32.1962H138.963L133.041 22.9973Z" fill="white"/>
<path d="M169.54 9.65887L164.729 18.3978H170.207L169.54 9.65887ZM159.676 27.5968L157.15 32.1962H149.065L166.751 0H176.856L179.383 32.1962H171.298L170.934 27.5968H159.676Z" fill="white"/>
<path d="M201.754 0H210.849L208.687 9.19892H199.591C197.921 9.19892 196.331 9.87351 194.821 11.2227C193.326 12.5719 192.356 14.197 191.911 16.0981C191.453 17.9992 191.655 19.6244 192.517 20.9735C193.393 22.3227 194.666 22.9973 196.337 22.9973H205.433L203.27 32.1962H194.175C190.267 32.1962 187.303 30.6247 185.281 27.4818C183.26 24.3388 182.775 20.5443 183.826 16.0981C184.864 11.652 187.134 7.85741 190.638 4.71445C194.141 1.57148 197.846 0 201.754 0Z" fill="white"/>
<path d="M237 0L234.837 9.19892H222.71L222.165 11.4987H232.27L230.108 20.6976H220.002L219.456 22.9973H231.583L229.421 32.1962H209.209L216.788 0H237Z" fill="white"/>
</svg>
